<svg id="Слой_1" data-name="Слой 1" xmlns="http://www.w3.org/2000/svg" xmlns:xlink="http://www.w3.org/1999/xlink" viewBox="0 0 144 144"><defs><style>.cls-1{fill:url(#Безымянный_градиент_10);}.cls-2{fill:#fff;}</style><linearGradient id="Безымянный_градиент_10" x1="1.34" y1="121.47" x2="142.66" y2="22.53" gradientUnits="userSpaceOnUse"><stop offset="0" stop-color="#00a1df"/><stop offset="0.05" stop-color="#0ba4d3"/><stop offset="0.4" stop-color="#58b779"/><stop offset="0.69" stop-color="#91c538"/><stop offset="0.89" stop-color="#b4ce0f"/><stop offset="1" stop-color="#c1d100"/></linearGradient></defs><title>evoja_logo</title><rect class="cls-1" width="144" height="144" rx="35.71" ry="35.71"/><path class="cls-2" d="M94.72,46H61.17S45.1,4.66,45.1,46c0,0-.17,26.81-.26,39.52a17,17,0,0,1-4.47,11.35L30.22,107.93a2.11,2.11,0,0,0,1.45,3.53l-.05,0h58a19.66,19.66,0,0,0,19.66-19.66V46C109.24,4.46,94.72,46,94.72,46ZM70.62,77c-2.88,0-5.21-3.08-5.21-6.88s2.33-6.88,5.21-6.88,5.2,3.08,5.2,6.88S73.49,77,70.62,77Zm11.69,7.74c-1.63,0-3-1-3-2.14s1.32-2.14,3-2.14,3,1,3,2.14S84,84.75,82.31,84.75ZM94,77c-2.88,0-5.21-3.08-5.21-6.88s2.33-6.88,5.21-6.88,5.21,3.08,5.21,6.88S96.89,77,94,77Z"/></svg>