<svg xmlns="http://www.w3.org/2000/svg" xmlns:xlink="http://www.w3.org/1999/xlink" viewBox="0 0 144 144"><defs><style>.cls-1{isolation:isolate;}.cls-2{fill:url(#Безымянный_градиент_26);}.cls-3{fill:#af802a;}.cls-4{opacity:0.6;fill:url(#Безымянный_градиент_26-2);}.cls-12,.cls-5{mix-blend-mode:multiply;}.cls-5{fill:url(#Безымянный_градиент_92);}.cls-6{fill:url(#Безымянный_градиент_26-3);}.cls-7{fill:#977124;}.cls-8{opacity:0.7;}.cls-9{fill:url(#Безымянный_градиент_26-4);}.cls-10{fill:#ffe677;}.cls-11{fill:#976bab;}.cls-12{fill:url(#Безымянный_градиент_93);}</style><linearGradient id="Безымянный_градиент_26" x1="-1.3" y1="116.04" x2="145.3" y2="27.96" gradientUnits="userSpaceOnUse"><stop offset="0" stop-color="#ffd979"/><stop offset="1" stop-color="#f9b233"/></linearGradient><linearGradient id="Безымянный_градиент_26-2" x1="29.41" y1="60.03" x2="49.34" y2="60.03" xlink:href="#Безымянный_градиент_26"/><linearGradient id="Безымянный_градиент_92" x1="103.13" y1="76.57" x2="112.87" y2="53.64" gradientUnits="userSpaceOnUse"><stop offset="0" stop-color="#1d1d1b" stop-opacity="0"/><stop offset="0.69" stop-color="#1d1d1b" stop-opacity="0.23"/><stop offset="1" stop-color="#1d1d1b" stop-opacity="0.4"/></linearGradient><linearGradient id="Безымянный_градиент_26-3" x1="97.44" y1="42.34" x2="138.96" y2="17.4" xlink:href="#Безымянный_градиент_26"/><linearGradient id="Безымянный_градиент_26-4" x1="47.39" y1="98.12" x2="102.98" y2="98.12" xlink:href="#Безымянный_градиент_26"/><linearGradient id="Безымянный_градиент_93" x1="106.79" y1="37.3" x2="120.47" y2="22.63" gradientUnits="userSpaceOnUse"><stop offset="0" stop-color="#1d1d1b" stop-opacity="0.4"/><stop offset="0.31" stop-color="#1d1d1b" stop-opacity="0.23"/><stop offset="1" stop-color="#1d1d1b" stop-opacity="0"/></linearGradient></defs><title>evoja_logo</title><g class="cls-1"><g id="Слой_1" data-name="Слой 1"><rect class="cls-2" width="144" height="144" rx="35.71" ry="35.71"/><rect class="cls-3" x="29.25" y="48.17" width="20.25" height="20.25" rx="10.12" ry="10.12"/><ellipse class="cls-4" cx="39.37" cy="60.03" rx="9.97" ry="8.39"/><path class="cls-5" d="M72,36.29A35.71,35.71,0,0,0,107.71,72H144V93.92L91.42,68.5Z"/><path class="cls-6" d="M108.29,0H72l72,72V35.71A35.71,35.71,0,0,0,108.29,0Z"/><path class="cls-7" d="M74.58,106.1A47.45,47.45,0,0,1,49.5,99.18a5.14,5.14,0,0,1-1.42-6.73,4.26,4.26,0,0,1,6.16-1.56,39.75,39.75,0,0,0,20.34,5.43,47.12,47.12,0,0,0,21.77-5.57,4.29,4.29,0,0,1,6.07,1.94,5.12,5.12,0,0,1-1.75,6.63A55.1,55.1,0,0,1,74.58,106.1Z"/><g class="cls-8"><path class="cls-9" d="M74.58,106.1A47.45,47.45,0,0,1,49.5,99.18a5.14,5.14,0,0,1-1.42-6.73,4.26,4.26,0,0,1,6.16-1.56,39.75,39.75,0,0,0,20.34,5.43,47.12,47.12,0,0,0,21.77-5.57,4.29,4.29,0,0,1,6.07,1.94,5.12,5.12,0,0,1-1.75,6.63A55.1,55.1,0,0,1,74.58,106.1Z"/></g><path class="cls-7" d="M48.08,95.21a4.27,4.27,0,0,1,6.16-1.56,39.75,39.75,0,0,0,20.34,5.43,47.32,47.32,0,0,0,21.77-5.56,4.29,4.29,0,0,1,6.07,1.93,5.31,5.31,0,0,1,.37,1,5.25,5.25,0,0,0-.37-3.74,4.29,4.29,0,0,0-6.07-1.94,47.12,47.12,0,0,1-21.77,5.57,39.75,39.75,0,0,1-20.34-5.43,4.26,4.26,0,0,0-6.16,1.56,5.18,5.18,0,0,0-.48,4A4.85,4.85,0,0,1,48.08,95.21Z"/><path class="cls-10" d="M72,36.29A35.71,35.71,0,0,0,107.71,72H144L72,0Z"/><path class="cls-11" d="M108.29,0H72l72,72V35.71A35.71,35.71,0,0,0,108.29,0Z"/><polygon class="cls-12" points="96.21 0 72 0 144 72 144 47.79 96.21 0"/></g></g></svg>