<svg xmlns="http://www.w3.org/2000/svg" xmlns:xlink="http://www.w3.org/1999/xlink" viewBox="0 0 144 144"><defs><style>.cls-1{isolation:isolate;}.cls-2{fill:url(#Безымянный_градиент_26);}.cls-3{fill:#977124;}.cls-4,.cls-5,.cls-6{opacity:0.6;}.cls-4{fill:url(#Безымянный_градиент_26-2);}.cls-5{fill:url(#Безымянный_градиент_26-3);}.cls-6{fill:url(#Безымянный_градиент_26-4);}.cls-7,.cls-8,.cls-9{mix-blend-mode:multiply;}.cls-7{fill:url(#Безымянный_градиент_95);}.cls-8{fill:url(#Безымянный_градиент_95-2);}.cls-9{fill:url(#Безымянный_градиент_95-3);}.cls-10{fill:#ffe677;}</style><linearGradient id="Безымянный_градиент_26" x1="-1.3" y1="116.04" x2="145.3" y2="27.96" gradientUnits="userSpaceOnUse"><stop offset="0" stop-color="#ffd979"/><stop offset="1" stop-color="#f9b233"/></linearGradient><linearGradient id="Безымянный_градиент_26-2" x1="72" y1="109.33" x2="72" y2="34.67" xlink:href="#Безымянный_градиент_26"/><linearGradient id="Безымянный_градиент_26-3" x1="104.86" y1="109.33" x2="104.86" y2="34.67" xlink:href="#Безымянный_градиент_26"/><linearGradient id="Безымянный_градиент_26-4" x1="39.64" y1="109.33" x2="39.64" y2="34.67" xlink:href="#Безымянный_градиент_26"/><radialGradient id="Безымянный_градиент_95" cx="39.64" cy="77.22" r="14.97" gradientUnits="userSpaceOnUse"><stop offset="0" stop-color="#1d1d1b" stop-opacity="0.4"/><stop offset="0.31" stop-color="#1d1d1b" stop-opacity="0.23"/><stop offset="1" stop-color="#1d1d1b" stop-opacity="0"/></radialGradient><radialGradient id="Безымянный_градиент_95-2" cx="72" cy="56.55" r="14.9" xlink:href="#Безымянный_градиент_95"/><radialGradient id="Безымянный_градиент_95-3" cx="104.86" cy="92.86" r="14" xlink:href="#Безымянный_градиент_95"/></defs><title>evoja_logo</title><g class="cls-1"><g id="Слой_1" data-name="Слой 1"><rect class="cls-2" width="144" height="144" rx="35.71" ry="35.71"/><rect class="cls-3" x="68.03" y="34.67" width="7.94" height="74.67" rx="3.97" ry="3.97"/><rect class="cls-4" x="68.03" y="34.67" width="7.94" height="74.67" rx="3.97" ry="3.97"/><path class="cls-3" d="M72,34.67a4,4,0,0,0-4,4v3a4,4,0,0,1,7.94,0v-3A4,4,0,0,0,72,34.67Z"/><rect class="cls-3" x="100.89" y="34.67" width="7.94" height="74.67" rx="3.97" ry="3.97"/><rect class="cls-5" x="100.89" y="34.67" width="7.94" height="74.67" rx="3.97" ry="3.97"/><path class="cls-3" d="M104.86,34.67a4,4,0,0,0-4,4v3a4,4,0,0,1,7.94,0v-3A4,4,0,0,0,104.86,34.67Z"/><rect class="cls-3" x="35.67" y="34.67" width="7.94" height="74.67" rx="3.97" ry="3.97"/><rect class="cls-6" x="35.67" y="34.67" width="7.94" height="74.67" rx="3.97" ry="3.97"/><path class="cls-3" d="M39.64,34.67a4,4,0,0,0-4,4v3a4,4,0,0,1,7.94,0v-3A4,4,0,0,0,39.64,34.67Z"/><rect class="cls-7" x="24.67" y="62.25" width="29.94" height="29.94" rx="4.88" ry="4.88"/><rect class="cls-8" x="57.1" y="41.66" width="29.8" height="29.8" rx="4.86" ry="4.86"/><rect class="cls-9" x="90.86" y="78.86" width="28" height="28" rx="4.57" ry="4.57"/><rect class="cls-10" x="96.69" y="81.79" width="16.33" height="16.33" rx="2.66" ry="2.66"/><rect class="cls-10" x="64.08" y="44.42" width="16.33" height="16.33" rx="2.66" ry="2.66"/><rect class="cls-10" x="31.47" y="66.17" width="16.33" height="16.33" rx="2.66" ry="2.66"/></g></g></svg>